<?xml version="1.0" encoding="UTF-8" standalone="no"?>
<svg width="150px" height="35px" viewBox="0 0 150 35" version="1.1" xmlns="http://www.w3.org/2000/svg" xmlns:xlink="http://www.w3.org/1999/xlink" xmlns:sketch="http://www.bohemiancoding.com/sketch/ns">
    <!-- Generator: Sketch 3.4.4 (17249) - http://www.bohemiancoding.com/sketch -->
    <title>Logo / White Text</title>
    <desc>Created with Sketch.</desc>
    <defs></defs>
    <g id="Page-1" stroke="none" stroke-width="1" fill="none" fill-rule="evenodd" sketch:type="MSPage">
        <g id="Traveloka-Mobile-UI-Kit" sketch:type="MSArtboardGroup" transform="translate(-410.000000, -350.000000)">
            <g id="Company-Logo" sketch:type="MSLayerGroup" transform="translate(100.000000, 231.300000)">
                <g id="Logo-/-White-Text" transform="translate(310.000000, 118.000000)" sketch:type="MSShapeGroup">
                    <g id="Icon-Blue-Copy" transform="translate(118.741997, 0.887574)">
                        <path d="M17.6389654,8.38148424 C23.5081192,4.63098545 30.8762409,3.91086847 30.8762409,3.91086847 C30.8762409,3.91086847 23.0587728,12.8408668 21.1474297,16.9666364 C20.5572273,18.766415 21.7927958,20.2304876 21.7927958,20.2304876 C21.7927958,20.2304876 18.3687393,16.3764705 17.6389654,8.38148424 Z" id="Path-7" fill="#F1F0F0"></path>
                        <path d="M20.1801533,6.97218042 C19.3198837,7.38626842 18.4645932,7.85389264 17.6389654,8.38148424 C18.0101657,12.4481428 19.0784468,15.4434252 20.0386277,17.4050947 C20.5526773,18.3179374 21.0415776,19.0817789 21.4096838,19.6275761 C21.2231142,19.2636943 21.030967,18.7562808 20.9940538,18.1646086 C20.4961165,16.250461 20.0398904,12.8676893 20.1801533,6.97218042 Z" id="Path-7-Copy" fill="#E0DFDE"></path>
                        <path d="M12.3769157,11.8704453 C12.3769157,11.8704453 11.9906901,10.5066641 11.8576315,10.1133169 C11.4992244,9.05379534 11.1323146,7.97658463 11.1323146,6.13806608 C11.1323146,3.61699794 15.4051424,0.927202084 18.0093216,0.0825001828 C17.3029698,9.25772607 18.328983,12.06606 19.2741318,15.1158183 C21.5107491,22.6202497 26.6190052,23.705366 27.1234936,24.2140806 C25.8210628,23.9312315 26.5644419,24.5418214 26.5644419,24.5418214 C26.5644419,24.5418214 24.4851377,23.0879613 20.2984636,21.897717 C16.1117895,20.7074727 12.8453275,20.5253162 10.8470401,19.3847089 C9.30812376,18.2229425 9.25857384,17.2765454 8.52723891,16.6412965 C6.12474004,14.5544489 0.0760725444,13.676844 0.0760725444,13.676844 L5.27999626,14.5289701 C5.27999626,14.5289701 5.99541493,14.5289699 6.83975998,14.2242183 C7.02151386,14.2003288 7.60086659,13.5364021 8.85580494,13.9561046 C9.37232055,14.1270606 9.22712121,14.3129337 10.7054808,14.7307894 C12.5790453,15.2603491 12.3769157,11.8704453 12.3769157,11.8704453 Z" id="Path-6" fill="#FFFFFF"></path>
                    </g>
                    <path d="M2.77951849,29.171268 C2.77951849,34.6030229 6.85447026,35.2458341 8.90774053,35.2458341 C9.539516,35.2458341 9.98175883,35.181553 9.98175883,35.181553 L9.98175883,32.4174647 C9.98175883,32.4174647 9.69745987,32.4817458 9.25521704,32.4817458 C8.08643242,32.4817458 5.84362951,32.0639185 5.84362951,28.8177218 L5.84362951,21.5860955 L9.69745987,21.5860955 L9.69745987,19.0791317 L5.84362951,19.0791317 L5.84362951,14.3866097 L2.87428481,14.3866097 L2.87428481,19.0791317 L0.694659446,19.0791317 L0.694659446,21.5860955 L2.77951849,21.5860955 L2.77951849,29.171268 Z M12.8046453,35.1172718 L15.8687563,35.1172718 L15.8687563,28.4641756 C15.8687563,27.4678182 15.9635226,26.4714608 16.2478216,25.5393845 C16.9743633,23.1288424 18.7749234,21.7146577 20.7334274,21.7146577 C21.207259,21.7146577 21.617913,21.8110794 21.617913,21.8110794 L21.617913,18.7255855 C21.617913,18.7255855 21.2388478,18.6613044 20.8281937,18.6613044 C18.3642694,18.6613044 16.5005317,20.525457 15.77399,22.9038585 L15.7108124,22.9038585 C15.7108124,22.9038585 15.77399,22.357469 15.77399,21.6825172 L15.77399,18.8541478 L12.8046453,18.8541478 L12.8046453,35.1172718 Z M22.6463929,30.5533121 C22.6463929,33.7995088 25.3314386,35.5029586 28.0796619,35.5029586 C31.9019035,35.5029586 33.1970432,32.2889024 33.1970432,32.2889024 L33.2602207,32.2889024 C33.2602207,32.2889024 33.1970432,32.835292 33.1970432,33.5745249 L33.1970432,35.1172718 L36.0400328,35.1172718 L36.0400328,24.8322922 C36.0400328,20.7183003 33.7656411,18.468461 29.7222781,18.468461 C26.0579804,18.468461 23.7519999,20.3968947 23.7519999,20.3968947 L25.0155509,22.6788746 C25.0155509,22.6788746 27.0056436,21.1039871 29.4695679,21.1039871 C31.4912494,21.1039871 32.9759218,22.0039228 32.9759218,24.6715894 L32.9759218,24.9608544 L32.2809687,24.9608544 C29.595923,24.9608544 22.6463929,25.1858384 22.6463929,30.5533121 L22.6463929,30.5533121 Z M25.7420927,30.3926093 C25.7420927,27.4678182 29.9118107,27.3071154 32.2177912,27.3071154 L33.0075105,27.3071154 L33.0075105,27.8213644 C33.0075105,30.2319065 31.3333055,32.9959948 28.7430261,32.9959948 C26.7529334,32.9959948 25.7420927,31.7103723 25.7420927,30.3926093 L25.7420927,30.3926093 Z M43.7907679,35.1172718 L47.3287105,35.1172718 L53.2358111,18.8541478 L50.0137562,18.8541478 L46.1283371,29.8462198 C45.8124494,30.7461555 45.5913279,32.0639185 45.5597392,32.0639185 L45.4965616,32.0639185 C45.4649729,32.0639185 45.2754402,30.7461555 44.9595525,29.8462198 L41.0741333,18.8541478 L37.8204897,18.8541478 L43.7907679,35.1172718 Z M54.0431695,26.9857098 C54.0431695,31.806794 57.4863458,35.5029586 62.5089608,35.5029586 C66.3312024,35.5029586 68.7003604,33.1888382 68.7003604,33.1888382 L67.4368094,30.9068583 C67.4368094,30.9068583 65.4467167,32.8031514 62.6984934,32.8031514 C59.8555038,32.8031514 57.3599907,31.00328 57.2020469,27.4356777 L68.8583043,27.4356777 C68.8583043,27.4356777 68.9530706,26.5036014 68.9530706,26.0857741 C68.9530706,21.8753606 66.5523238,18.468461 62.0351292,18.468461 C57.4863458,18.468461 54.0431695,21.8110794 54.0431695,26.9857098 L54.0431695,26.9857098 Z M57.2968132,25.0894167 C57.739056,22.4217501 59.6343824,20.9432843 61.9719516,20.9432843 C64.0252219,20.9432843 65.7310157,22.2931878 65.825782,25.0894167 L57.2968132,25.0894167 Z M71.7821105,30.6818744 C71.7821105,34.7637257 74.3408011,35.2458341 76.0781837,35.2458341 C76.6151928,35.2458341 77.0890244,35.181553 77.0890244,35.181553 L77.0890244,32.4174647 C77.0890244,32.4174647 76.8363142,32.4496052 76.5520153,32.4496052 C75.6043521,32.4496052 74.8462215,32.0960591 74.8462215,30.1354848 L74.8462215,12.4260355 L71.7821105,12.4260355 L71.7821105,30.6818744 Z M78.4649807,26.9535693 C78.4649807,31.9032157 82.3188111,35.5029586 87.0887159,35.5029586 C91.8586207,35.5029586 95.712451,31.9032157 95.712451,26.9535693 C95.712451,22.0360634 91.8586207,18.468461 87.0887159,18.468461 C82.3188111,18.468461 78.4649807,22.0360634 78.4649807,26.9535693 L78.4649807,26.9535693 Z M81.5922693,26.9535693 C81.5922693,23.5788103 84.0877824,21.1682682 87.0887159,21.1682682 C90.1212381,21.1682682 92.5851625,23.5788103 92.5851625,26.9535693 C92.5851625,30.3604688 90.1212381,32.8031514 87.0887159,32.8031514 C84.0877824,32.8031514 81.5922693,30.3604688 81.5922693,26.9535693 L81.5922693,26.9535693 Z M98.7248701,35.1172718 L101.788981,35.1172718 L101.788981,27.4678182 L104.094962,27.4678182 L108.896455,35.1172718 L112.465987,35.1172718 L106.558886,26.0857741 L106.558886,26.021493 L111.8658,18.8541478 L108.391035,18.8541478 L104.031784,24.8322922 L101.788981,24.8322922 L101.788981,12.4260355 L98.7248701,12.4260355 L98.7248701,35.1172718 Z M113.336522,30.5533121 C113.336522,33.7995088 116.021568,35.5029586 118.769792,35.5029586 C122.592033,35.5029586 123.887173,32.2889024 123.887173,32.2889024 L123.95035,32.2889024 C123.95035,32.2889024 123.887173,32.835292 123.887173,33.5745249 L123.887173,35.1172718 L126.730162,35.1172718 L126.730162,24.8322922 C126.730162,20.7183003 124.455771,18.468461 120.412408,18.468461 C116.74811,18.468461 114.44213,20.3968947 114.44213,20.3968947 L115.70568,22.6788746 C115.70568,22.6788746 117.695773,21.1039871 120.159698,21.1039871 C122.181379,21.1039871 123.666051,22.0039228 123.666051,24.6715894 L123.666051,24.9608544 L122.971098,24.9608544 C120.286053,24.9608544 113.336522,25.1858384 113.336522,30.5533121 L113.336522,30.5533121 Z M116.432222,30.3926093 C116.432222,27.4678182 120.60194,27.3071154 122.907921,27.3071154 L123.69764,27.3071154 L123.69764,27.8213644 C123.69764,30.2319065 122.023435,32.9959948 119.433156,32.9959948 C117.443063,32.9959948 116.432222,31.7103723 116.432222,30.3926093 L116.432222,30.3926093 Z" id="traveloka" fill="#FFFFFF"></path>
                </g>
            </g>
        </g>
    </g>
</svg>